<svg xmlns="http://www.w3.org/2000/svg" xmlns:xlink="http://www.w3.org/1999/xlink" width="500" zoomAndPan="magnify" viewBox="0 0 375 374.999991" height="500" preserveAspectRatio="xMidYMid meet" version="1.0"><defs><g/><clipPath id="a8d23aec2e"><path d="M 77.671875 160.335938 L 123.625 160.335938 L 123.625 206.289062 L 77.671875 206.289062 Z M 77.671875 160.335938 " clip-rule="nonzero"/></clipPath><clipPath id="1e81ca8671"><path d="M 100.648438 160.335938 C 87.957031 160.335938 77.671875 170.621094 77.671875 183.3125 C 77.671875 196 87.957031 206.289062 100.648438 206.289062 C 113.335938 206.289062 123.625 196 123.625 183.3125 C 123.625 170.621094 113.335938 160.335938 100.648438 160.335938 Z M 100.648438 160.335938 " clip-rule="nonzero"/></clipPath><clipPath id="4f01ce8647"><path d="M 0.671875 0.335938 L 46.625 0.335938 L 46.625 46.289062 L 0.671875 46.289062 Z M 0.671875 0.335938 " clip-rule="nonzero"/></clipPath><clipPath id="75bd06acd4"><path d="M 23.648438 0.335938 C 10.957031 0.335938 0.671875 10.621094 0.671875 23.3125 C 0.671875 36 10.957031 46.289062 23.648438 46.289062 C 36.335938 46.289062 46.625 36 46.625 23.3125 C 46.625 10.621094 36.335938 0.335938 23.648438 0.335938 Z M 23.648438 0.335938 " clip-rule="nonzero"/></clipPath><linearGradient x1="0.00000152423" gradientTransform="matrix(0.1795, 0, 0, 0.1795, 0.671398, 0.335854)" y1="128" x2="255.999982" gradientUnits="userSpaceOnUse" y2="128" id="ec0119aa4c"><stop stop-opacity="1" stop-color="rgb(54.899597%, 32.159424%, 99.998474%)" offset="0"/><stop stop-opacity="1" stop-color="rgb(54.824829%, 32.377625%, 99.960327%)" offset="0.00390625"/><stop stop-opacity="1" stop-color="rgb(54.751587%, 32.597351%, 99.92218%)" offset="0.0078125"/><stop stop-opacity="1" stop-color="rgb(54.678345%, 32.815552%, 99.884033%)" offset="0.0117187"/><stop stop-opacity="1" stop-color="rgb(54.605103%, 33.035278%, 99.845886%)" offset="0.015625"/><stop stop-opacity="1" stop-color="rgb(54.53186%, 33.253479%, 99.807739%)" offset="0.0195312"/><stop stop-opacity="1" stop-color="rgb(54.458618%, 33.473206%, 99.769592%)" offset="0.0234375"/><stop stop-opacity="1" stop-color="rgb(54.38385%, 33.691406%, 99.731445%)" offset="0.0273438"/><stop stop-opacity="1" stop-color="rgb(54.310608%, 33.911133%, 99.693298%)" offset="0.03125"/><stop stop-opacity="1" stop-color="rgb(54.237366%, 34.130859%, 99.655151%)" offset="0.0351562"/><stop stop-opacity="1" stop-color="rgb(54.164124%, 34.350586%, 99.617004%)" offset="0.0390625"/><stop stop-opacity="1" stop-color="rgb(54.090881%, 34.568787%, 99.577332%)" offset="0.0429687"/><stop stop-opacity="1" stop-color="rgb(54.017639%, 34.788513%, 99.539185%)" offset="0.046875"/><stop stop-opacity="1" stop-color="rgb(53.942871%, 35.006714%, 99.501038%)" offset="0.0507812"/><stop stop-opacity="1" stop-color="rgb(53.869629%, 35.22644%, 99.462891%)" offset="0.0546875"/><stop stop-opacity="1" stop-color="rgb(53.796387%, 35.444641%, 99.424744%)" offset="0.0585938"/><stop stop-opacity="1" stop-color="rgb(53.723145%, 35.664368%, 99.386597%)" offset="0.0625"/><stop stop-opacity="1" stop-color="rgb(53.649902%, 35.882568%, 99.34845%)" offset="0.0664062"/><stop stop-opacity="1" stop-color="rgb(53.57666%, 36.102295%, 99.310303%)" offset="0.0703125"/><stop stop-opacity="1" stop-color="rgb(53.501892%, 36.320496%, 99.272156%)" offset="0.0742187"/><stop stop-opacity="1" stop-color="rgb(53.42865%, 36.540222%, 99.234009%)" offset="0.078125"/><stop stop-opacity="1" stop-color="rgb(53.355408%, 36.758423%, 99.195862%)" offset="0.0820312"/><stop stop-opacity="1" stop-color="rgb(53.282166%, 36.978149%, 99.157715%)" offset="0.0859375"/><stop stop-opacity="1" stop-color="rgb(53.207397%, 37.19635%, 99.118042%)" offset="0.0898437"/><stop stop-opacity="1" stop-color="rgb(53.134155%, 37.416077%, 99.079895%)" offset="0.09375"/><stop stop-opacity="1" stop-color="rgb(53.060913%, 37.635803%, 99.041748%)" offset="0.0976562"/><stop stop-opacity="1" stop-color="rgb(52.987671%, 37.85553%, 99.003601%)" offset="0.101562"/><stop stop-opacity="1" stop-color="rgb(52.914429%, 38.07373%, 98.965454%)" offset="0.105469"/><stop stop-opacity="1" stop-color="rgb(52.841187%, 38.293457%, 98.927307%)" offset="0.109375"/><stop stop-opacity="1" stop-color="rgb(52.766418%, 38.511658%, 98.88916%)" offset="0.113281"/><stop stop-opacity="1" stop-color="rgb(52.693176%, 38.731384%, 98.851013%)" offset="0.117188"/><stop stop-opacity="1" stop-color="rgb(52.619934%, 38.949585%, 98.812866%)" offset="0.121094"/><stop stop-opacity="1" stop-color="rgb(52.546692%, 39.169312%, 98.774719%)" offset="0.125"/><stop stop-opacity="1" stop-color="rgb(52.47345%, 39.387512%, 98.736572%)" offset="0.128906"/><stop stop-opacity="1" stop-color="rgb(52.400208%, 39.607239%, 98.698425%)" offset="0.132812"/><stop stop-opacity="1" stop-color="rgb(52.325439%, 39.825439%, 98.658752%)" offset="0.136719"/><stop stop-opacity="1" stop-color="rgb(52.252197%, 40.045166%, 98.620605%)" offset="0.140625"/><stop stop-opacity="1" stop-color="rgb(52.178955%, 40.263367%, 98.582458%)" offset="0.144531"/><stop stop-opacity="1" stop-color="rgb(52.105713%, 40.483093%, 98.544312%)" offset="0.148437"/><stop stop-opacity="1" stop-color="rgb(52.032471%, 40.701294%, 98.506165%)" offset="0.152344"/><stop stop-opacity="1" stop-color="rgb(51.959229%, 40.921021%, 98.468018%)" offset="0.15625"/><stop stop-opacity="1" stop-color="rgb(51.88446%, 41.140747%, 98.429871%)" offset="0.160156"/><stop stop-opacity="1" stop-color="rgb(51.811218%, 41.360474%, 98.391724%)" offset="0.164062"/><stop stop-opacity="1" stop-color="rgb(51.737976%, 41.578674%, 98.353577%)" offset="0.167969"/><stop stop-opacity="1" stop-color="rgb(51.664734%, 41.798401%, 98.31543%)" offset="0.171875"/><stop stop-opacity="1" stop-color="rgb(51.591492%, 42.016602%, 98.275757%)" offset="0.175781"/><stop stop-opacity="1" stop-color="rgb(51.51825%, 42.236328%, 98.23761%)" offset="0.179687"/><stop stop-opacity="1" stop-color="rgb(51.443481%, 42.454529%, 98.199463%)" offset="0.183594"/><stop stop-opacity="1" stop-color="rgb(51.370239%, 42.674255%, 98.161316%)" offset="0.1875"/><stop stop-opacity="1" stop-color="rgb(51.296997%, 42.892456%, 98.123169%)" offset="0.191406"/><stop stop-opacity="1" stop-color="rgb(51.223755%, 43.112183%, 98.085022%)" offset="0.195312"/><stop stop-opacity="1" stop-color="rgb(51.148987%, 43.330383%, 98.046875%)" offset="0.199219"/><stop stop-opacity="1" stop-color="rgb(51.075745%, 43.55011%, 98.008728%)" offset="0.203125"/><stop stop-opacity="1" stop-color="rgb(51.002502%, 43.768311%, 97.970581%)" offset="0.207031"/><stop stop-opacity="1" stop-color="rgb(50.92926%, 43.988037%, 97.932434%)" offset="0.210938"/><stop stop-opacity="1" stop-color="rgb(50.856018%, 44.207764%, 97.894287%)" offset="0.214844"/><stop stop-opacity="1" stop-color="rgb(50.782776%, 44.42749%, 97.85614%)" offset="0.21875"/><stop stop-opacity="1" stop-color="rgb(50.708008%, 44.645691%, 97.816467%)" offset="0.222656"/><stop stop-opacity="1" stop-color="rgb(50.634766%, 44.865417%, 97.77832%)" offset="0.226562"/><stop stop-opacity="1" stop-color="rgb(50.561523%, 45.083618%, 97.740173%)" offset="0.230469"/><stop stop-opacity="1" stop-color="rgb(50.488281%, 45.303345%, 97.702026%)" offset="0.234375"/><stop stop-opacity="1" stop-color="rgb(50.415039%, 45.521545%, 97.663879%)" offset="0.238281"/><stop stop-opacity="1" stop-color="rgb(50.341797%, 45.741272%, 97.625732%)" offset="0.242188"/><stop stop-opacity="1" stop-color="rgb(50.267029%, 45.959473%, 97.587585%)" offset="0.246094"/><stop stop-opacity="1" stop-color="rgb(50.193787%, 46.179199%, 97.549438%)" offset="0.25"/><stop stop-opacity="1" stop-color="rgb(50.120544%, 46.3974%, 97.511292%)" offset="0.253906"/><stop stop-opacity="1" stop-color="rgb(50.047302%, 46.617126%, 97.473145%)" offset="0.257812"/><stop stop-opacity="1" stop-color="rgb(49.97406%, 46.835327%, 97.434998%)" offset="0.261719"/><stop stop-opacity="1" stop-color="rgb(49.900818%, 47.055054%, 97.396851%)" offset="0.265625"/><stop stop-opacity="1" stop-color="rgb(49.82605%, 47.273254%, 97.357178%)" offset="0.269531"/><stop stop-opacity="1" stop-color="rgb(49.752808%, 47.492981%, 97.319031%)" offset="0.273437"/><stop stop-opacity="1" stop-color="rgb(49.679565%, 47.712708%, 97.280884%)" offset="0.277344"/><stop stop-opacity="1" stop-color="rgb(49.606323%, 47.932434%, 97.242737%)" offset="0.28125"/><stop stop-opacity="1" stop-color="rgb(49.533081%, 48.150635%, 97.20459%)" offset="0.285156"/><stop stop-opacity="1" stop-color="rgb(49.459839%, 48.370361%, 97.166443%)" offset="0.289062"/><stop stop-opacity="1" stop-color="rgb(49.385071%, 48.588562%, 97.128296%)" offset="0.292969"/><stop stop-opacity="1" stop-color="rgb(49.311829%, 48.808289%, 97.090149%)" offset="0.296875"/><stop stop-opacity="1" stop-color="rgb(49.238586%, 49.026489%, 97.052002%)" offset="0.300781"/><stop stop-opacity="1" stop-color="rgb(49.165344%, 49.246216%, 97.013855%)" offset="0.304687"/><stop stop-opacity="1" stop-color="rgb(49.090576%, 49.464417%, 96.974182%)" offset="0.308594"/><stop stop-opacity="1" stop-color="rgb(49.017334%, 49.684143%, 96.936035%)" offset="0.3125"/><stop stop-opacity="1" stop-color="rgb(48.944092%, 49.902344%, 96.897888%)" offset="0.316406"/><stop stop-opacity="1" stop-color="rgb(48.87085%, 50.12207%, 96.859741%)" offset="0.320312"/><stop stop-opacity="1" stop-color="rgb(48.797607%, 50.340271%, 96.821594%)" offset="0.324219"/><stop stop-opacity="1" stop-color="rgb(48.724365%, 50.559998%, 96.783447%)" offset="0.328125"/><stop stop-opacity="1" stop-color="rgb(48.649597%, 50.778198%, 96.7453%)" offset="0.332031"/><stop stop-opacity="1" stop-color="rgb(48.576355%, 50.997925%, 96.707153%)" offset="0.335937"/><stop stop-opacity="1" stop-color="rgb(48.503113%, 51.217651%, 96.669006%)" offset="0.339844"/><stop stop-opacity="1" stop-color="rgb(48.429871%, 51.437378%, 96.630859%)" offset="0.34375"/><stop stop-opacity="1" stop-color="rgb(48.356628%, 51.655579%, 96.592712%)" offset="0.347656"/><stop stop-opacity="1" stop-color="rgb(48.283386%, 51.875305%, 96.554565%)" offset="0.351562"/><stop stop-opacity="1" stop-color="rgb(48.208618%, 52.093506%, 96.514893%)" offset="0.355469"/><stop stop-opacity="1" stop-color="rgb(48.135376%, 52.313232%, 96.476746%)" offset="0.359375"/><stop stop-opacity="1" stop-color="rgb(48.062134%, 52.531433%, 96.438599%)" offset="0.363281"/><stop stop-opacity="1" stop-color="rgb(47.988892%, 52.75116%, 96.400452%)" offset="0.367187"/><stop stop-opacity="1" stop-color="rgb(47.915649%, 52.96936%, 96.362305%)" offset="0.371094"/><stop stop-opacity="1" stop-color="rgb(47.842407%, 53.189087%, 96.324158%)" offset="0.375"/><stop stop-opacity="1" stop-color="rgb(47.767639%, 53.407288%, 96.286011%)" offset="0.378906"/><stop stop-opacity="1" stop-color="rgb(47.694397%, 53.627014%, 96.247864%)" offset="0.382812"/><stop stop-opacity="1" stop-color="rgb(47.621155%, 53.845215%, 96.209717%)" offset="0.386719"/><stop stop-opacity="1" stop-color="rgb(47.547913%, 54.064941%, 96.17157%)" offset="0.390625"/><stop stop-opacity="1" stop-color="rgb(47.473145%, 54.283142%, 96.133423%)" offset="0.394531"/><stop stop-opacity="1" stop-color="rgb(47.399902%, 54.502869%, 96.095276%)" offset="0.398438"/><stop stop-opacity="1" stop-color="rgb(47.32666%, 54.722595%, 96.055603%)" offset="0.402344"/><stop stop-opacity="1" stop-color="rgb(47.253418%, 54.942322%, 96.017456%)" offset="0.40625"/><stop stop-opacity="1" stop-color="rgb(47.180176%, 55.160522%, 95.979309%)" offset="0.410156"/><stop stop-opacity="1" stop-color="rgb(47.106934%, 55.380249%, 95.941162%)" offset="0.414062"/><stop stop-opacity="1" stop-color="rgb(47.032166%, 55.59845%, 95.903015%)" offset="0.417969"/><stop stop-opacity="1" stop-color="rgb(46.958923%, 55.818176%, 95.864868%)" offset="0.421875"/><stop stop-opacity="1" stop-color="rgb(46.885681%, 56.036377%, 95.826721%)" offset="0.425781"/><stop stop-opacity="1" stop-color="rgb(46.812439%, 56.256104%, 95.788574%)" offset="0.429688"/><stop stop-opacity="1" stop-color="rgb(46.739197%, 56.474304%, 95.750427%)" offset="0.433594"/><stop stop-opacity="1" stop-color="rgb(46.665955%, 56.694031%, 95.71228%)" offset="0.4375"/><stop stop-opacity="1" stop-color="rgb(46.591187%, 56.912231%, 95.672607%)" offset="0.441406"/><stop stop-opacity="1" stop-color="rgb(46.517944%, 57.131958%, 95.63446%)" offset="0.445312"/><stop stop-opacity="1" stop-color="rgb(46.444702%, 57.350159%, 95.596313%)" offset="0.449219"/><stop stop-opacity="1" stop-color="rgb(46.37146%, 57.569885%, 95.558167%)" offset="0.453125"/><stop stop-opacity="1" stop-color="rgb(46.298218%, 57.789612%, 95.52002%)" offset="0.457031"/><stop stop-opacity="1" stop-color="rgb(46.224976%, 58.009338%, 95.481873%)" offset="0.460938"/><stop stop-opacity="1" stop-color="rgb(46.150208%, 58.227539%, 95.443726%)" offset="0.464844"/><stop stop-opacity="1" stop-color="rgb(46.076965%, 58.447266%, 95.405579%)" offset="0.46875"/><stop stop-opacity="1" stop-color="rgb(46.003723%, 58.665466%, 95.367432%)" offset="0.472656"/><stop stop-opacity="1" stop-color="rgb(45.930481%, 58.885193%, 95.329285%)" offset="0.476562"/><stop stop-opacity="1" stop-color="rgb(45.857239%, 59.103394%, 95.291138%)" offset="0.480469"/><stop stop-opacity="1" stop-color="rgb(45.783997%, 59.32312%, 95.252991%)" offset="0.484375"/><stop stop-opacity="1" stop-color="rgb(45.709229%, 59.541321%, 95.213318%)" offset="0.488281"/><stop stop-opacity="1" stop-color="rgb(45.635986%, 59.761047%, 95.175171%)" offset="0.492188"/><stop stop-opacity="1" stop-color="rgb(45.562744%, 59.979248%, 95.137024%)" offset="0.496094"/><stop stop-opacity="1" stop-color="rgb(45.489502%, 60.198975%, 95.098877%)" offset="0.5"/><stop stop-opacity="1" stop-color="rgb(45.414734%, 60.417175%, 95.06073%)" offset="0.503906"/><stop stop-opacity="1" stop-color="rgb(45.341492%, 60.636902%, 95.022583%)" offset="0.507812"/><stop stop-opacity="1" stop-color="rgb(45.26825%, 60.855103%, 94.984436%)" offset="0.511719"/><stop stop-opacity="1" stop-color="rgb(45.195007%, 61.074829%, 94.946289%)" offset="0.515625"/><stop stop-opacity="1" stop-color="rgb(45.121765%, 61.294556%, 94.908142%)" offset="0.519531"/><stop stop-opacity="1" stop-color="rgb(45.048523%, 61.514282%, 94.869995%)" offset="0.523438"/><stop stop-opacity="1" stop-color="rgb(44.973755%, 61.732483%, 94.831848%)" offset="0.527344"/><stop stop-opacity="1" stop-color="rgb(44.900513%, 61.952209%, 94.793701%)" offset="0.53125"/><stop stop-opacity="1" stop-color="rgb(44.827271%, 62.17041%, 94.754028%)" offset="0.535156"/><stop stop-opacity="1" stop-color="rgb(44.754028%, 62.390137%, 94.715881%)" offset="0.539062"/><stop stop-opacity="1" stop-color="rgb(44.680786%, 62.608337%, 94.677734%)" offset="0.542969"/><stop stop-opacity="1" stop-color="rgb(44.607544%, 62.828064%, 94.639587%)" offset="0.546875"/><stop stop-opacity="1" stop-color="rgb(44.532776%, 63.046265%, 94.60144%)" offset="0.550781"/><stop stop-opacity="1" stop-color="rgb(44.459534%, 63.265991%, 94.563293%)" offset="0.554687"/><stop stop-opacity="1" stop-color="rgb(44.386292%, 63.484192%, 94.525146%)" offset="0.558594"/><stop stop-opacity="1" stop-color="rgb(44.313049%, 63.703918%, 94.487%)" offset="0.5625"/><stop stop-opacity="1" stop-color="rgb(44.239807%, 63.922119%, 94.448853%)" offset="0.566406"/><stop stop-opacity="1" stop-color="rgb(44.166565%, 64.141846%, 94.410706%)" offset="0.570312"/><stop stop-opacity="1" stop-color="rgb(44.091797%, 64.360046%, 94.371033%)" offset="0.574219"/><stop stop-opacity="1" stop-color="rgb(44.018555%, 64.579773%, 94.332886%)" offset="0.578125"/><stop stop-opacity="1" stop-color="rgb(43.945312%, 64.7995%, 94.294739%)" offset="0.582031"/><stop stop-opacity="1" stop-color="rgb(43.87207%, 65.019226%, 94.256592%)" offset="0.585937"/><stop stop-opacity="1" stop-color="rgb(43.798828%, 65.237427%, 94.218445%)" offset="0.589844"/><stop stop-opacity="1" stop-color="rgb(43.725586%, 65.457153%, 94.180298%)" offset="0.59375"/><stop stop-opacity="1" stop-color="rgb(43.650818%, 65.675354%, 94.142151%)" offset="0.597656"/><stop stop-opacity="1" stop-color="rgb(43.577576%, 65.895081%, 94.104004%)" offset="0.601562"/><stop stop-opacity="1" stop-color="rgb(43.504333%, 66.113281%, 94.065857%)" offset="0.605469"/><stop stop-opacity="1" stop-color="rgb(43.431091%, 66.333008%, 94.02771%)" offset="0.609375"/><stop stop-opacity="1" stop-color="rgb(43.356323%, 66.551208%, 93.989563%)" offset="0.613281"/><stop stop-opacity="1" stop-color="rgb(43.283081%, 66.770935%, 93.951416%)" offset="0.617187"/><stop stop-opacity="1" stop-color="rgb(43.209839%, 66.989136%, 93.911743%)" offset="0.621094"/><stop stop-opacity="1" stop-color="rgb(43.136597%, 67.208862%, 93.873596%)" offset="0.625"/><stop stop-opacity="1" stop-color="rgb(43.063354%, 67.427063%, 93.835449%)" offset="0.628906"/><stop stop-opacity="1" stop-color="rgb(42.990112%, 67.64679%, 93.797302%)" offset="0.632812"/><stop stop-opacity="1" stop-color="rgb(42.915344%, 67.866516%, 93.759155%)" offset="0.636719"/><stop stop-opacity="1" stop-color="rgb(42.842102%, 68.086243%, 93.721008%)" offset="0.640625"/><stop stop-opacity="1" stop-color="rgb(42.76886%, 68.304443%, 93.682861%)" offset="0.644531"/><stop stop-opacity="1" stop-color="rgb(42.695618%, 68.52417%, 93.644714%)" offset="0.648437"/><stop stop-opacity="1" stop-color="rgb(42.622375%, 68.742371%, 93.606567%)" offset="0.652344"/><stop stop-opacity="1" stop-color="rgb(42.549133%, 68.962097%, 93.56842%)" offset="0.65625"/><stop stop-opacity="1" stop-color="rgb(42.474365%, 69.180298%, 93.530273%)" offset="0.660156"/><stop stop-opacity="1" stop-color="rgb(42.401123%, 69.400024%, 93.492126%)" offset="0.664062"/><stop stop-opacity="1" stop-color="rgb(42.327881%, 69.618225%, 93.452454%)" offset="0.667969"/><stop stop-opacity="1" stop-color="rgb(42.254639%, 69.837952%, 93.414307%)" offset="0.671875"/><stop stop-opacity="1" stop-color="rgb(42.181396%, 70.056152%, 93.37616%)" offset="0.675781"/><stop stop-opacity="1" stop-color="rgb(42.108154%, 70.275879%, 93.338013%)" offset="0.679687"/><stop stop-opacity="1" stop-color="rgb(42.033386%, 70.49408%, 93.299866%)" offset="0.683594"/><stop stop-opacity="1" stop-color="rgb(41.960144%, 70.713806%, 93.261719%)" offset="0.6875"/><stop stop-opacity="1" stop-color="rgb(41.886902%, 70.932007%, 93.223572%)" offset="0.691406"/><stop stop-opacity="1" stop-color="rgb(41.81366%, 71.151733%, 93.185425%)" offset="0.695312"/><stop stop-opacity="1" stop-color="rgb(41.740417%, 71.37146%, 93.147278%)" offset="0.699219"/><stop stop-opacity="1" stop-color="rgb(41.667175%, 71.591187%, 93.109131%)" offset="0.703125"/><stop stop-opacity="1" stop-color="rgb(41.592407%, 71.809387%, 93.069458%)" offset="0.707031"/><stop stop-opacity="1" stop-color="rgb(41.519165%, 72.029114%, 93.031311%)" offset="0.710937"/><stop stop-opacity="1" stop-color="rgb(41.445923%, 72.247314%, 92.993164%)" offset="0.714844"/><stop stop-opacity="1" stop-color="rgb(41.372681%, 72.467041%, 92.955017%)" offset="0.71875"/><stop stop-opacity="1" stop-color="rgb(41.297913%, 72.685242%, 92.91687%)" offset="0.722656"/><stop stop-opacity="1" stop-color="rgb(41.22467%, 72.904968%, 92.878723%)" offset="0.726562"/><stop stop-opacity="1" stop-color="rgb(41.151428%, 73.123169%, 92.840576%)" offset="0.730469"/><stop stop-opacity="1" stop-color="rgb(41.078186%, 73.342896%, 92.802429%)" offset="0.734375"/><stop stop-opacity="1" stop-color="rgb(41.004944%, 73.561096%, 92.764282%)" offset="0.738281"/><stop stop-opacity="1" stop-color="rgb(40.931702%, 73.780823%, 92.726135%)" offset="0.742187"/><stop stop-opacity="1" stop-color="rgb(40.856934%, 73.999023%, 92.687988%)" offset="0.746094"/><stop stop-opacity="1" stop-color="rgb(40.783691%, 74.21875%, 92.649841%)" offset="0.75"/><stop stop-opacity="1" stop-color="rgb(40.710449%, 74.436951%, 92.610168%)" offset="0.753906"/><stop stop-opacity="1" stop-color="rgb(40.637207%, 74.656677%, 92.572021%)" offset="0.757812"/><stop stop-opacity="1" stop-color="rgb(40.563965%, 74.876404%, 92.533875%)" offset="0.761719"/><stop stop-opacity="1" stop-color="rgb(40.490723%, 75.09613%, 92.495728%)" offset="0.765625"/><stop stop-opacity="1" stop-color="rgb(40.415955%, 75.314331%, 92.457581%)" offset="0.769531"/><stop stop-opacity="1" stop-color="rgb(40.342712%, 75.534058%, 92.419434%)" offset="0.773437"/><stop stop-opacity="1" stop-color="rgb(40.26947%, 75.752258%, 92.381287%)" offset="0.777344"/><stop stop-opacity="1" stop-color="rgb(40.196228%, 75.971985%, 92.34314%)" offset="0.78125"/><stop stop-opacity="1" stop-color="rgb(40.122986%, 76.190186%, 92.304993%)" offset="0.785156"/><stop stop-opacity="1" stop-color="rgb(40.049744%, 76.409912%, 92.266846%)" offset="0.789062"/><stop stop-opacity="1" stop-color="rgb(39.974976%, 76.628113%, 92.228699%)" offset="0.792969"/><stop stop-opacity="1" stop-color="rgb(39.901733%, 76.847839%, 92.190552%)" offset="0.796875"/><stop stop-opacity="1" stop-color="rgb(39.828491%, 77.06604%, 92.150879%)" offset="0.800781"/><stop stop-opacity="1" stop-color="rgb(39.755249%, 77.285767%, 92.112732%)" offset="0.804687"/><stop stop-opacity="1" stop-color="rgb(39.680481%, 77.503967%, 92.074585%)" offset="0.808594"/><stop stop-opacity="1" stop-color="rgb(39.607239%, 77.723694%, 92.036438%)" offset="0.8125"/><stop stop-opacity="1" stop-color="rgb(39.533997%, 77.941895%, 91.998291%)" offset="0.816406"/><stop stop-opacity="1" stop-color="rgb(39.460754%, 78.161621%, 91.960144%)" offset="0.820312"/><stop stop-opacity="1" stop-color="rgb(39.387512%, 78.381348%, 91.921997%)" offset="0.824219"/><stop stop-opacity="1" stop-color="rgb(39.31427%, 78.601074%, 91.88385%)" offset="0.828125"/><stop stop-opacity="1" stop-color="rgb(39.239502%, 78.819275%, 91.845703%)" offset="0.832031"/><stop stop-opacity="1" stop-color="rgb(39.16626%, 79.039001%, 91.807556%)" offset="0.835937"/><stop stop-opacity="1" stop-color="rgb(39.093018%, 79.257202%, 91.767883%)" offset="0.839844"/><stop stop-opacity="1" stop-color="rgb(39.019775%, 79.476929%, 91.729736%)" offset="0.84375"/><stop stop-opacity="1" stop-color="rgb(38.946533%, 79.695129%, 91.691589%)" offset="0.847656"/><stop stop-opacity="1" stop-color="rgb(38.873291%, 79.914856%, 91.653442%)" offset="0.851562"/><stop stop-opacity="1" stop-color="rgb(38.798523%, 80.133057%, 91.615295%)" offset="0.855469"/><stop stop-opacity="1" stop-color="rgb(38.725281%, 80.352783%, 91.577148%)" offset="0.859375"/><stop stop-opacity="1" stop-color="rgb(38.652039%, 80.570984%, 91.539001%)" offset="0.863281"/><stop stop-opacity="1" stop-color="rgb(38.578796%, 80.79071%, 91.500854%)" offset="0.867187"/><stop stop-opacity="1" stop-color="rgb(38.505554%, 81.008911%, 91.462708%)" offset="0.871094"/><stop stop-opacity="1" stop-color="rgb(38.432312%, 81.228638%, 91.424561%)" offset="0.875"/><stop stop-opacity="1" stop-color="rgb(38.357544%, 81.448364%, 91.386414%)" offset="0.878906"/><stop stop-opacity="1" stop-color="rgb(38.284302%, 81.668091%, 91.348267%)" offset="0.882812"/><stop stop-opacity="1" stop-color="rgb(38.21106%, 81.886292%, 91.308594%)" offset="0.886719"/><stop stop-opacity="1" stop-color="rgb(38.137817%, 82.106018%, 91.270447%)" offset="0.890625"/><stop stop-opacity="1" stop-color="rgb(38.064575%, 82.324219%, 91.2323%)" offset="0.894531"/><stop stop-opacity="1" stop-color="rgb(37.991333%, 82.543945%, 91.194153%)" offset="0.898437"/><stop stop-opacity="1" stop-color="rgb(37.916565%, 82.762146%, 91.156006%)" offset="0.902344"/><stop stop-opacity="1" stop-color="rgb(37.843323%, 82.981873%, 91.117859%)" offset="0.90625"/><stop stop-opacity="1" stop-color="rgb(37.770081%, 83.200073%, 91.079712%)" offset="0.910156"/><stop stop-opacity="1" stop-color="rgb(37.696838%, 83.4198%, 91.041565%)" offset="0.914062"/><stop stop-opacity="1" stop-color="rgb(37.62207%, 83.638%, 91.003418%)" offset="0.917969"/><stop stop-opacity="1" stop-color="rgb(37.548828%, 83.857727%, 90.965271%)" offset="0.921875"/><stop stop-opacity="1" stop-color="rgb(37.475586%, 84.075928%, 90.927124%)" offset="0.925781"/><stop stop-opacity="1" stop-color="rgb(37.402344%, 84.295654%, 90.888977%)" offset="0.929687"/><stop stop-opacity="1" stop-color="rgb(37.329102%, 84.513855%, 90.849304%)" offset="0.933594"/><stop stop-opacity="1" stop-color="rgb(37.255859%, 84.733582%, 90.811157%)" offset="0.9375"/><stop stop-opacity="1" stop-color="rgb(37.181091%, 84.953308%, 90.77301%)" offset="0.941406"/><stop stop-opacity="1" stop-color="rgb(37.107849%, 85.173035%, 90.734863%)" offset="0.945312"/><stop stop-opacity="1" stop-color="rgb(37.034607%, 85.391235%, 90.696716%)" offset="0.949219"/><stop stop-opacity="1" stop-color="rgb(36.961365%, 85.610962%, 90.658569%)" offset="0.953125"/><stop stop-opacity="1" stop-color="rgb(36.888123%, 85.829163%, 90.620422%)" offset="0.957031"/><stop stop-opacity="1" stop-color="rgb(36.81488%, 86.048889%, 90.582275%)" offset="0.960937"/><stop stop-opacity="1" stop-color="rgb(36.740112%, 86.26709%, 90.544128%)" offset="0.964844"/><stop stop-opacity="1" stop-color="rgb(36.66687%, 86.486816%, 90.505981%)" offset="0.96875"/><stop stop-opacity="1" stop-color="rgb(36.593628%, 86.705017%, 90.467834%)" offset="0.972656"/><stop stop-opacity="1" stop-color="rgb(36.520386%, 86.924744%, 90.429688%)" offset="0.976562"/><stop stop-opacity="1" stop-color="rgb(36.447144%, 87.142944%, 90.390015%)" offset="0.980469"/><stop stop-opacity="1" stop-color="rgb(36.373901%, 87.362671%, 90.351868%)" offset="0.984375"/><stop stop-opacity="1" stop-color="rgb(36.299133%, 87.580872%, 90.313721%)" offset="0.988281"/><stop stop-opacity="1" stop-color="rgb(36.225891%, 87.800598%, 90.275574%)" offset="0.992187"/><stop stop-opacity="1" stop-color="rgb(36.152649%, 88.018799%, 90.237427%)" offset="0.996094"/><stop stop-opacity="1" stop-color="rgb(36.079407%, 88.238525%, 90.19928%)" offset="1"/></linearGradient><clipPath id="24bc295e2d"><rect x="0" width="47" y="0" height="47"/></clipPath></defs><rect x="-37.5" width="450" fill="#ffffff" y="-37.499999" height="449.999989" fill-opacity="1"/><rect x="-37.5" width="450" fill="#ffffff" y="-37.499999" height="449.999989" fill-opacity="1"/><g clip-path="url(#a8d23aec2e)"><g clip-path="url(#1e81ca8671)"><g transform="matrix(1, 0, 0, 1, 77, 160)"><g clip-path="url(#24bc295e2d)"><g clip-path="url(#4f01ce8647)"><g clip-path="url(#75bd06acd4)"><path fill="url(#ec0119aa4c)" d="M 0.671875 0.335938 L 0.671875 46.289062 L 46.625 46.289062 L 46.625 0.335938 Z M 0.671875 0.335938 " fill-rule="nonzero"/></g></g></g></g></g></g><g fill="#36b8cf" fill-opacity="1"><g transform="translate(123.793077, 196.645036)"><g><path d="M 0.703125 8.875 C 2.285156 8.53125 3.4375 7.664062 4.15625 6.28125 C 4.875 4.894531 5.234375 3.144531 5.234375 1.03125 L 5.234375 -27.78125 C 5.234375 -28.65625 5.09375 -29.507812 4.8125 -30.34375 C 4.53125 -31.1875 4.1875 -31.890625 3.78125 -32.453125 L 3.78125 -32.6875 L 11.109375 -32.6875 L 11.109375 -32.453125 C 10.703125 -31.890625 10.359375 -31.1875 10.078125 -30.34375 C 9.804688 -29.507812 9.671875 -28.65625 9.671875 -27.78125 L 9.671875 0.65625 C 9.671875 3.613281 8.851562 5.800781 7.21875 7.21875 C 5.582031 8.632812 3.410156 9.34375 0.703125 9.34375 Z M 0.703125 8.875 "/></g></g></g><g fill="#36b8cf" fill-opacity="1"><g transform="translate(138.639679, 196.645036)"><g><path d="M 11.765625 0.515625 C 9.523438 0.515625 7.703125 -0.253906 6.296875 -1.796875 C 4.898438 -3.335938 4.203125 -5.320312 4.203125 -7.75 L 4.203125 -17.234375 C 4.203125 -18.253906 4.082031 -19.097656 3.84375 -19.765625 C 3.613281 -20.441406 3.25 -21.023438 2.75 -21.515625 L 2.75 -21.75 L 8.125 -23.859375 L 8.359375 -23.859375 L 8.359375 -7.796875 C 8.359375 -6.179688 8.835938 -4.84375 9.796875 -3.78125 C 10.765625 -2.71875 12.03125 -2.1875 13.59375 -2.1875 C 15.207031 -2.1875 16.585938 -2.707031 17.734375 -3.75 C 18.890625 -4.800781 19.46875 -6.148438 19.46875 -7.796875 L 19.46875 -17.234375 C 19.46875 -18.253906 19.347656 -19.109375 19.109375 -19.796875 C 18.878906 -20.484375 18.515625 -21.054688 18.015625 -21.515625 L 18.015625 -21.75 L 23.390625 -23.859375 L 23.625 -23.859375 L 23.625 -5.28125 C 23.625 -3.34375 24.125 -1.972656 25.125 -1.171875 L 25.125 -0.9375 L 19.703125 0.515625 L 19.46875 0.515625 L 19.46875 -4.203125 L 19.234375 -4.203125 C 18.609375 -2.796875 17.640625 -1.65625 16.328125 -0.78125 C 15.023438 0.0820312 13.503906 0.515625 11.765625 0.515625 Z M 11.765625 0.515625 "/></g></g></g><g fill="#36b8cf" fill-opacity="1"><g transform="translate(166.745509, 196.645036)"><g><path d="M 21.84375 -0.984375 C 21.59375 -0.546875 21.179688 -0.1875 20.609375 0.09375 C 20.035156 0.375 19.40625 0.515625 18.71875 0.515625 C 17.664062 0.515625 16.800781 0.25 16.125 -0.28125 C 15.457031 -0.8125 15.109375 -1.585938 15.078125 -2.609375 L 15.03125 -3.171875 L 14.84375 -3.171875 C 14.15625 -1.992188 13.242188 -1.082031 12.109375 -0.4375 C 10.972656 0.195312 9.644531 0.515625 8.125 0.515625 C 6.289062 0.515625 4.847656 0.0664062 3.796875 -0.828125 C 2.753906 -1.734375 2.234375 -2.90625 2.234375 -4.34375 C 2.234375 -6.019531 2.851562 -7.414062 4.09375 -8.53125 C 5.34375 -9.65625 6.941406 -10.484375 8.890625 -11.015625 C 10.835938 -11.546875 12.898438 -11.8125 15.078125 -11.8125 L 15.078125 -15.640625 C 15.078125 -17.316406 14.53125 -18.707031 13.4375 -19.8125 C 12.351562 -20.914062 10.925781 -21.46875 9.15625 -21.46875 C 7.75 -21.46875 6.515625 -21.125 5.453125 -20.4375 C 4.398438 -19.757812 3.578125 -18.828125 2.984375 -17.640625 L 2.515625 -17.640625 C 3.015625 -19.546875 4.007812 -21.054688 5.5 -22.171875 C 7 -23.296875 8.773438 -23.859375 10.828125 -23.859375 C 13.410156 -23.859375 15.457031 -23.09375 16.96875 -21.5625 C 18.476562 -20.039062 19.234375 -18.066406 19.234375 -15.640625 L 19.234375 -2.609375 C 19.234375 -2.054688 19.363281 -1.640625 19.625 -1.359375 C 19.894531 -1.078125 20.234375 -0.9375 20.640625 -0.9375 C 21.160156 -0.9375 21.484375 -1.03125 21.609375 -1.21875 Z M 10.40625 -1.6875 C 11.78125 -1.6875 12.898438 -2.191406 13.765625 -3.203125 C 14.640625 -4.210938 15.078125 -5.351562 15.078125 -6.625 L 15.078125 -10.828125 C 12.460938 -10.765625 10.398438 -10.257812 8.890625 -9.3125 C 7.378906 -8.363281 6.625 -7.050781 6.625 -5.375 C 6.625 -4.15625 7 -3.234375 7.75 -2.609375 C 8.5 -1.992188 9.382812 -1.6875 10.40625 -1.6875 Z M 10.40625 -1.6875 "/></g></g></g><g fill="#36b8cf" fill-opacity="1"><g transform="translate(189.762403, 196.645036)"><g><path d="M 3.5 -0.234375 C 4.3125 -1.359375 4.71875 -2.804688 4.71875 -4.578125 L 4.71875 -17.234375 C 4.71875 -18.253906 4.59375 -19.109375 4.34375 -19.796875 C 4.09375 -20.484375 3.71875 -21.054688 3.21875 -21.515625 L 3.21875 -21.75 L 8.640625 -23.859375 L 8.875 -23.859375 L 8.875 -19.140625 L 9.109375 -19.140625 C 9.722656 -20.546875 10.679688 -21.679688 11.984375 -22.546875 C 13.296875 -23.421875 14.828125 -23.859375 16.578125 -23.859375 C 18.941406 -23.859375 20.820312 -23.085938 22.21875 -21.546875 C 23.625 -20.003906 24.328125 -18.019531 24.328125 -15.59375 L 24.328125 -4.578125 C 24.328125 -2.804688 24.726562 -1.359375 25.53125 -0.234375 L 25.53125 0 L 18.953125 0 L 18.953125 -0.234375 C 19.765625 -1.359375 20.171875 -2.804688 20.171875 -4.578125 L 20.171875 -15.546875 C 20.171875 -17.160156 19.671875 -18.5 18.671875 -19.5625 C 17.679688 -20.625 16.375 -21.15625 14.75 -21.15625 C 13.132812 -21.15625 11.75 -20.628906 10.59375 -19.578125 C 9.445312 -18.535156 8.875 -17.191406 8.875 -15.546875 L 8.875 -4.578125 C 8.875 -2.804688 9.273438 -1.359375 10.078125 -0.234375 L 10.078125 0 L 3.5 0 Z M 3.5 -0.234375 "/></g></g></g><g fill="#99acff" fill-opacity="1"><g transform="translate(218.339946, 196.645036)"><g><path d="M 11.0625 -0.234375 C 11.46875 -0.796875 11.8125 -1.492188 12.09375 -2.328125 C 12.375 -3.171875 12.515625 -4.03125 12.515625 -4.90625 L 12.515625 -31.703125 L 9.53125 -31.703125 C 7.1875 -31.703125 5.359375 -31.132812 4.046875 -30 C 2.742188 -28.863281 1.597656 -27.144531 0.609375 -24.84375 L 0.140625 -24.84375 L 1.171875 -32.6875 L 28.34375 -32.6875 L 29.3125 -24.84375 L 28.859375 -24.84375 C 27.890625 -27.113281 26.75 -28.820312 25.4375 -29.96875 C 24.132812 -31.125 22.316406 -31.703125 19.984375 -31.703125 L 16.953125 -31.703125 L 16.953125 -4.90625 C 16.953125 -4.03125 17.085938 -3.171875 17.359375 -2.328125 C 17.640625 -1.492188 17.984375 -0.796875 18.390625 -0.234375 L 18.390625 0 L 11.0625 0 Z M 11.0625 -0.234375 "/></g></g></g><g fill="#99acff" fill-opacity="1"><g transform="translate(244.998464, 196.645036)"><g><path d="M 21.84375 -0.984375 C 21.59375 -0.546875 21.179688 -0.1875 20.609375 0.09375 C 20.035156 0.375 19.40625 0.515625 18.71875 0.515625 C 17.664062 0.515625 16.800781 0.25 16.125 -0.28125 C 15.457031 -0.8125 15.109375 -1.585938 15.078125 -2.609375 L 15.03125 -3.171875 L 14.84375 -3.171875 C 14.15625 -1.992188 13.242188 -1.082031 12.109375 -0.4375 C 10.972656 0.195312 9.644531 0.515625 8.125 0.515625 C 6.289062 0.515625 4.847656 0.0664062 3.796875 -0.828125 C 2.753906 -1.734375 2.234375 -2.90625 2.234375 -4.34375 C 2.234375 -6.019531 2.851562 -7.414062 4.09375 -8.53125 C 5.34375 -9.65625 6.941406 -10.484375 8.890625 -11.015625 C 10.835938 -11.546875 12.898438 -11.8125 15.078125 -11.8125 L 15.078125 -15.640625 C 15.078125 -17.316406 14.53125 -18.707031 13.4375 -19.8125 C 12.351562 -20.914062 10.925781 -21.46875 9.15625 -21.46875 C 7.75 -21.46875 6.515625 -21.125 5.453125 -20.4375 C 4.398438 -19.757812 3.578125 -18.828125 2.984375 -17.640625 L 2.515625 -17.640625 C 3.015625 -19.546875 4.007812 -21.054688 5.5 -22.171875 C 7 -23.296875 8.773438 -23.859375 10.828125 -23.859375 C 13.410156 -23.859375 15.457031 -23.09375 16.96875 -21.5625 C 18.476562 -20.039062 19.234375 -18.066406 19.234375 -15.640625 L 19.234375 -2.609375 C 19.234375 -2.054688 19.363281 -1.640625 19.625 -1.359375 C 19.894531 -1.078125 20.234375 -0.9375 20.640625 -0.9375 C 21.160156 -0.9375 21.484375 -1.03125 21.609375 -1.21875 Z M 10.40625 -1.6875 C 11.78125 -1.6875 12.898438 -2.191406 13.765625 -3.203125 C 14.640625 -4.210938 15.078125 -5.351562 15.078125 -6.625 L 15.078125 -10.828125 C 12.460938 -10.765625 10.398438 -10.257812 8.890625 -9.3125 C 7.378906 -8.363281 6.625 -7.050781 6.625 -5.375 C 6.625 -4.15625 7 -3.234375 7.75 -2.609375 C 8.5 -1.992188 9.382812 -1.6875 10.40625 -1.6875 Z M 10.40625 -1.6875 "/></g></g></g><g fill="#99acff" fill-opacity="1"><g transform="translate(268.015358, 196.645036)"><g><path d="M 3.21875 9.109375 C 4.03125 7.984375 4.4375 6.535156 4.4375 4.765625 L 4.4375 -17.234375 C 4.4375 -18.253906 4.316406 -19.097656 4.078125 -19.765625 C 3.847656 -20.441406 3.484375 -21.023438 2.984375 -21.515625 L 2.984375 -21.75 L 8.359375 -23.859375 L 8.59375 -23.859375 L 8.59375 -19.234375 L 8.828125 -19.234375 C 9.441406 -20.609375 10.390625 -21.722656 11.671875 -22.578125 C 12.953125 -23.429688 14.398438 -23.859375 16.015625 -23.859375 C 18.035156 -23.859375 19.769531 -23.359375 21.21875 -22.359375 C 22.664062 -21.367188 23.769531 -20.007812 24.53125 -18.28125 C 25.289062 -16.550781 25.671875 -14.597656 25.671875 -12.421875 C 25.671875 -9.960938 25.164062 -7.742188 24.15625 -5.765625 C 23.144531 -3.785156 21.785156 -2.242188 20.078125 -1.140625 C 18.367188 -0.0351562 16.515625 0.515625 14.515625 0.515625 C 12.148438 0.515625 10.175781 -0.15625 8.59375 -1.5 L 8.59375 4.765625 C 8.59375 6.535156 8.992188 7.984375 9.796875 9.109375 L 9.796875 9.34375 L 3.21875 9.34375 Z M 14.5625 -0.5625 C 16.675781 -0.5625 18.347656 -1.523438 19.578125 -3.453125 C 20.804688 -5.378906 21.421875 -7.960938 21.421875 -11.203125 C 21.421875 -13.222656 21.125 -14.992188 20.53125 -16.515625 C 19.945312 -18.046875 19.125 -19.21875 18.0625 -20.03125 C 17.007812 -20.84375 15.8125 -21.25 14.46875 -21.25 C 12.820312 -21.25 11.453125 -20.722656 10.359375 -19.671875 C 9.273438 -18.628906 8.6875 -17.285156 8.59375 -15.640625 L 8.59375 -6.90625 C 8.65625 -5.914062 8.914062 -4.925781 9.375 -3.9375 C 9.84375 -2.957031 10.519531 -2.148438 11.40625 -1.515625 C 12.300781 -0.878906 13.351562 -0.5625 14.5625 -0.5625 Z M 14.5625 -0.5625 "/></g></g></g><g fill="#ffffff" fill-opacity="1"><g transform="translate(86.025193, 189.145036)"><g><path d="M 3.015625 0.5 C 2.109375 0.5 1.410156 0.328125 0.921875 -0.015625 C 0.429688 -0.367188 0.1875 -0.84375 0.1875 -1.4375 C 0.1875 -1.957031 0.367188 -2.351562 0.734375 -2.625 C 1.097656 -2.90625 1.519531 -3.046875 2 -3.046875 C 2.476562 -3.046875 2.898438 -2.9375 3.265625 -2.71875 C 3.640625 -2.507812 3.984375 -2.148438 4.296875 -1.640625 L 4.796875 -0.78125 C 4.890625 -0.644531 5.003906 -0.578125 5.140625 -0.578125 C 5.285156 -0.578125 5.382812 -0.660156 5.4375 -0.828125 C 5.550781 -1.203125 5.628906 -1.742188 5.671875 -2.453125 C 5.710938 -3.160156 5.734375 -4.023438 5.734375 -5.046875 C 5.734375 -6.210938 5.707031 -7.707031 5.65625 -9.53125 C 5.601562 -11.363281 5.546875 -13.625 5.484375 -16.3125 C 5.484375 -17.101562 5.191406 -17.601562 4.609375 -17.8125 L 3.96875 -18.03125 L 3.96875 -18.296875 L 11.234375 -18.296875 L 11.234375 -18.03125 L 10.625 -17.8125 C 10.289062 -17.675781 10.0625 -17.5 9.9375 -17.28125 C 9.820312 -17.070312 9.765625 -16.773438 9.765625 -16.390625 L 9.765625 -10.90625 C 9.765625 -9.09375 9.679688 -7.59375 9.515625 -6.40625 C 9.347656 -5.21875 9.078125 -4.191406 8.703125 -3.328125 C 8.242188 -2.085938 7.488281 -1.140625 6.4375 -0.484375 C 5.394531 0.171875 4.253906 0.5 3.015625 0.5 Z M 3.015625 0.5 "/></g></g></g><g fill="#ffffff" fill-opacity="1"><g transform="translate(97.864426, 189.145036)"><g><path d="M 4.328125 0 L 4.328125 -0.28125 L 5.46875 -0.546875 C 6.21875 -0.710938 6.59375 -1.175781 6.59375 -1.9375 L 6.59375 -17.75 L 4.25 -17.75 C 3.5625 -17.75 3.066406 -17.566406 2.765625 -17.203125 C 2.472656 -16.847656 2.160156 -16.351562 1.828125 -15.71875 L 0.828125 -13.78125 L 0.546875 -13.78125 L 0.6875 -18.296875 L 16.703125 -18.296875 L 16.8125 -13.78125 L 16.53125 -13.78125 L 15.53125 -15.71875 C 15.21875 -16.351562 14.910156 -16.847656 14.609375 -17.203125 C 14.316406 -17.566406 13.828125 -17.75 13.140625 -17.75 L 10.78125 -17.75 L 10.78125 -1.9375 C 10.78125 -1.175781 11.160156 -0.710938 11.921875 -0.546875 L 13.0625 -0.28125 L 13.0625 0 Z M 4.328125 0 "/></g></g></g></svg>